#N canvas 1644 143 1122 626 10;
#N canvas 1919 1121 2006 318 ctl 0;
#X obj 50 122 ctlin 3;
#X msg 52 153 set \$1;
#X obj 46 256 ctlout 3;
#X obj 50 190 s lforatein;
#X obj 47 222 r lforateout;
#X obj 100 31 ctlin;
#X floatatom 94 66 5 0 0 0 - - -, f 5;
#X msg 154 153 set \$1;
#X obj 152 190 s vcolfoamtin;
#X obj 149 222 r vcolfoamtout;
#X floatatom 146 70 5 0 0 0 - - -, f 5;
#X obj 152 122 ctlin 13;
#X obj 148 256 ctlout 13;
#X msg 301 150 set \$1;
#X obj 299 119 ctlin 12;
#X obj 295 253 ctlout 12;
#X obj 299 187 s vcflfoamtin;
#X obj 296 220 r vcflfoamtout;
#X msg 419 151 set \$1;
#X obj 417 120 ctlin 28;
#X obj 413 254 ctlout 28;
#X obj 417 188 s ampattackin;
#X obj 414 221 r ampattackout;
#X msg 533 154 set \$1;
#X msg 644 154 set \$1;
#X obj 531 123 ctlin 29;
#X obj 527 257 ctlout 29;
#X obj 531 191 s ampdecayin;
#X obj 528 224 r ampdecayout;
#X obj 642 191 s ampsustainin;
#X obj 639 224 r ampsustainout;
#X obj 638 257 ctlout 30;
#X obj 642 123 ctlin 30;
#X msg 770 160 set \$1;
#X obj 768 129 ctlin 31;
#X obj 768 197 s ampreleasein;
#X obj 765 230 r ampreleaseout;
#X obj 764 263 ctlout 31;
#X msg 48 344 set \$1;
#X obj 46 313 ctlin 15;
#X obj 46 381 s vco1lvlin;
#X obj 43 414 r vco1lvlout;
#X obj 42 447 ctlout 15;
#X msg 147 347 set \$1;
#X obj 145 316 ctlin 16;
#X obj 141 450 ctlout 16;
#X obj 145 384 s vco2lvlin;
#X obj 142 417 r vco2lvlout;
#X msg 275 347 set \$1;
#X obj 273 316 ctlin 70;
#X obj 267 541 ctlout 70;
#X obj 273 384 s osc1in;
#X obj 270 417 r osc1out;
#X msg 271 483 0;
#X obj 275 447 sel 0 1;
#X msg 318 478 65;
#X msg 363 347 set \$1;
#X msg 359 483 0;
#X obj 363 447 sel 0 1;
#X msg 406 478 65;
#X obj 361 316 ctlin 71;
#X obj 355 541 ctlout 71;
#X obj 361 384 s osc2in;
#X obj 358 417 r osc2out;
#X msg 451 351 set \$1;
#X msg 447 487 0;
#X obj 451 451 sel 0 1;
#X msg 494 482 65;
#X obj 449 320 ctlin 87;
#X obj 443 545 ctlout 87;
#X obj 449 388 s lfomidisyncin;
#X obj 446 421 r lfomidisyncout;
#X obj 659 425 midiout;
#X text 647 340 show fw version;
#X msg 657 384 240 \, 4 \, 8 \, 22 \, 0 \, 0 \, 16 \, 247;
#X obj 778 348 r fwversion;
#X obj 52 681 midiout;
#X text 80 596 output midi cc values for all sound parameters;
#X msg 49 624 240 \, 4 \, 8 \, 27 \, 0 \, 0 \, 247;
#X obj 35 567 r getallcc;
#X obj 620 565 midiout;
#X text 633 482 midi clock led;
#X msg 620 513 240 \, 4 \, 8 \, 30 \, 0 \, 0 \, 247;
#X msg 906 368 set \$1;
#X msg 902 504 0;
#X obj 906 468 sel 0 1;
#X msg 949 499 65;
#X obj 904 337 ctlin 82;
#X obj 898 562 ctlout 82;
#X obj 904 405 s lfokeytrigin;
#X obj 901 438 r lfokeytrigout;
#X msg 893 164 set \$1;
#X obj 891 133 ctlin 17;
#X obj 887 267 ctlout 17;
#X obj 891 201 s vco2freqin;
#X obj 888 234 r vco2freqout;
#X msg 998 162 set \$1;
#X obj 996 131 ctlin 18;
#X obj 992 265 ctlout 18;
#X obj 996 199 s vco2beatfreqin;
#X obj 993 232 r vco2beatfreqout;
#X msg 1029 370 set \$1;
#X msg 1025 506 0;
#X obj 1029 470 sel 0 1;
#X msg 1072 501 65;
#X obj 1027 339 ctlin 81;
#X obj 1021 564 ctlout 81;
#X obj 1027 407 s notesyncin;
#X obj 1024 440 r notesyncout;
#X msg 44 745 set \$1;
#X obj 42 714 ctlin 65;
#X obj 42 782 s glidein;
#X msg 143 745 set \$1;
#X obj 141 714 ctlin 5;
#X obj 137 848 ctlout 5;
#X obj 141 782 s glideratein;
#X obj 138 815 r gliderateout;
#X msg 40 881 0;
#X obj 44 845 sel 0 1;
#X msg 87 876 65;
#X obj 36 939 ctlout 65;
#X obj 39 815 r glideout;
#X obj 347 711 r glidetypeout;
#X obj 357 751 sel 0 1 2;
#X msg 320 794 0;
#X obj 335 860 ctlout 92;
#X msg 381 795 43;
#X msg 527 733 set \$1;
#X msg 523 869 0;
#X obj 527 833 sel 0 1;
#X msg 570 864 65;
#X obj 525 702 ctlin 83;
#X obj 519 927 ctlout 83;
#X obj 525 770 s legatoglidein;
#X obj 522 803 r legatoglideout;
#X msg 1138 166 set \$1;
#X obj 1136 135 ctlin 27;
#X obj 1132 269 ctlout 27;
#X obj 1136 203 s extinlevelin;
#X obj 1133 236 r extinlevelout;
#X msg 1257 167 set \$1;
#X obj 1255 136 ctlin 19;
#X obj 1251 270 ctlout 19;
#X obj 1255 204 s cutoffin;
#X msg 1376 166 set \$1;
#X obj 1374 135 ctlin 21;
#X obj 1370 269 ctlout 21;
#X obj 1374 203 s resin;
#X obj 1371 236 r resout;
#X msg 1459 165 set \$1;
#X obj 1457 134 ctlin 22;
#X obj 1453 268 ctlout 22;
#X obj 1457 202 s egamtin;
#X obj 1454 235 r egamtout;
#X msg 1149 365 set \$1;
#X obj 1147 334 ctlin 7;
#X obj 1143 468 ctlout 7;
#X obj 1147 402 s vcain;
#X obj 1144 435 r vcaout;
#X msg 693 671 set \$1;
#X msg 807 674 set \$1;
#X msg 918 674 set \$1;
#X obj 691 640 ctlin 23;
#X obj 687 774 ctlout 23;
#X obj 805 643 ctlin 24;
#X obj 801 777 ctlout 24;
#X obj 916 643 ctlin 25;
#X obj 912 777 ctlout 25;
#X obj 690 708 s vcfattackin;
#X obj 688 741 r vcfattackout;
#X obj 805 711 s vcfdecayin;
#X obj 802 744 r vcfdecayout;
#X obj 916 711 s vcfsustainin;
#X obj 913 744 r vcfsustainout;
#X msg 1046 680 set \$1;
#X obj 1044 649 ctlin 26;
#X obj 1040 783 ctlout 26;
#X obj 1044 717 s vcfreleasein;
#X obj 1041 750 r vcfreleaseout;
#X msg 1215 680 set \$1;
#X msg 1211 816 0;
#X obj 1215 780 sel 0 1;
#X msg 1258 811 65;
#X obj 1213 649 ctlin 72;
#X obj 1207 874 ctlout 72;
#X obj 1213 717 s releasein;
#X obj 1210 750 r releaseout;
#X msg 320 794 0;
#X msg 381 795 43;
#X msg 424 795 85;
#X obj 605 1113 sel 0 1 2;
#X msg 604 1150 0;
#X msg 650 1150 43;
#X obj 606 1079 r trigmodeout;
#X obj 601 1188 ctlout 73;
#X msg 682 867 set \$1;
#X obj 680 836 ctlin 90;
#X obj 676 970 ctlout 90;
#X obj 680 904 s volvelin;
#X obj 677 937 r volvelout;
#X msg 777 865 set \$1;
#X obj 775 834 ctlin 7;
#X obj 771 968 ctlout 7;
#X obj 775 902 s volin;
#X obj 772 935 r volout;
#X obj 1007 1128 sel 0 1 2;
#X msg 1006 1165 0;
#X msg 1052 1165 43;
#X obj 1001 1085 r keyprioout;
#X obj 1003 1203 ctlout 91;
#X obj 263 1074 r noteoffout;
#X msg 263 1114 1;
#X obj 267 1146 ctlout 123;
#X msg 389 1113 1;
#X obj 389 1073 r soundoffout;
#X obj 393 1145 ctlout 120;
#X obj 60 1279 r patchout;
#X obj 59 1341 pgmout;
#X obj 158 1304 s getallcc;
#X obj 277 1236 r npatchout;
#X obj 281 1268 print $patchout;
#X msg 726 1129 86;
#X msg 1109 1167 86;
#X msg 424 795 86;
#X obj 772 1054 ctlin 73;
#X msg 773 1164 set 0;
#X obj 762 1274 s trigmodein;
#X msg 838 1187 set 1;
#X msg 910 1192 set 2;
#X obj 775 1091 moses 43;
#X obj 845 1126 moses 86;
#X msg 1157 1183 set 0;
#X msg 1222 1206 set 1;
#X msg 1294 1211 set 2;
#X obj 1159 1110 moses 43;
#X obj 1229 1145 moses 86;
#X obj 1156 1073 ctlin 91;
#X obj 1146 1293 s keyprioin;
#X obj 1252 237 r cutoffout;
#X connect 0 0 1 0;
#X connect 1 0 3 0;
#X connect 4 0 2 0;
#X connect 5 0 6 0;
#X connect 5 1 10 0;
#X connect 7 0 8 0;
#X connect 9 0 12 0;
#X connect 11 0 7 0;
#X connect 13 0 16 0;
#X connect 14 0 13 0;
#X connect 17 0 15 0;
#X connect 18 0 21 0;
#X connect 19 0 18 0;
#X connect 22 0 20 0;
#X connect 23 0 27 0;
#X connect 24 0 29 0;
#X connect 25 0 23 0;
#X connect 28 0 26 0;
#X connect 30 0 31 0;
#X connect 32 0 24 0;
#X connect 33 0 35 0;
#X connect 34 0 33 0;
#X connect 36 0 37 0;
#X connect 38 0 40 0;
#X connect 39 0 38 0;
#X connect 41 0 42 0;
#X connect 43 0 46 0;
#X connect 44 0 43 0;
#X connect 47 0 45 0;
#X connect 48 0 51 0;
#X connect 49 0 48 0;
#X connect 52 0 54 0;
#X connect 53 0 50 0;
#X connect 54 0 53 0;
#X connect 54 1 55 0;
#X connect 55 0 50 0;
#X connect 56 0 62 0;
#X connect 57 0 61 0;
#X connect 58 0 57 0;
#X connect 58 1 59 0;
#X connect 59 0 61 0;
#X connect 60 0 56 0;
#X connect 63 0 58 0;
#X connect 64 0 70 0;
#X connect 65 0 69 0;
#X connect 66 0 65 0;
#X connect 66 1 67 0;
#X connect 67 0 69 0;
#X connect 68 0 64 0;
#X connect 71 0 66 0;
#X connect 74 0 72 0;
#X connect 75 0 74 0;
#X connect 78 0 76 0;
#X connect 79 0 78 0;
#X connect 82 0 80 0;
#X connect 83 0 89 0;
#X connect 84 0 88 0;
#X connect 85 0 84 0;
#X connect 85 1 86 0;
#X connect 86 0 88 0;
#X connect 87 0 83 0;
#X connect 90 0 85 0;
#X connect 91 0 94 0;
#X connect 92 0 91 0;
#X connect 95 0 93 0;
#X connect 96 0 99 0;
#X connect 97 0 96 0;
#X connect 100 0 98 0;
#X connect 101 0 107 0;
#X connect 102 0 106 0;
#X connect 103 0 102 0;
#X connect 103 1 104 0;
#X connect 104 0 106 0;
#X connect 105 0 101 0;
#X connect 108 0 103 0;
#X connect 109 0 111 0;
#X connect 110 0 109 0;
#X connect 112 0 115 0;
#X connect 113 0 112 0;
#X connect 116 0 114 0;
#X connect 117 0 120 0;
#X connect 118 0 117 0;
#X connect 118 1 119 0;
#X connect 119 0 120 0;
#X connect 121 0 118 0;
#X connect 122 0 123 0;
#X connect 123 0 124 0;
#X connect 123 1 126 0;
#X connect 123 2 223 0;
#X connect 124 0 125 0;
#X connect 126 0 125 0;
#X connect 127 0 133 0;
#X connect 128 0 132 0;
#X connect 129 0 128 0;
#X connect 129 1 130 0;
#X connect 130 0 132 0;
#X connect 131 0 127 0;
#X connect 134 0 129 0;
#X connect 135 0 138 0;
#X connect 136 0 135 0;
#X connect 139 0 137 0;
#X connect 140 0 143 0;
#X connect 141 0 140 0;
#X connect 144 0 147 0;
#X connect 145 0 144 0;
#X connect 148 0 146 0;
#X connect 149 0 152 0;
#X connect 150 0 149 0;
#X connect 153 0 151 0;
#X connect 154 0 157 0;
#X connect 155 0 154 0;
#X connect 158 0 156 0;
#X connect 159 0 168 0;
#X connect 160 0 170 0;
#X connect 161 0 172 0;
#X connect 162 0 159 0;
#X connect 164 0 160 0;
#X connect 166 0 161 0;
#X connect 169 0 163 0;
#X connect 171 0 165 0;
#X connect 173 0 167 0;
#X connect 174 0 177 0;
#X connect 175 0 174 0;
#X connect 178 0 176 0;
#X connect 179 0 185 0;
#X connect 180 0 184 0;
#X connect 181 0 180 0;
#X connect 181 1 182 0;
#X connect 182 0 184 0;
#X connect 183 0 179 0;
#X connect 186 0 181 0;
#X connect 190 0 191 0;
#X connect 190 1 192 0;
#X connect 190 2 221 0;
#X connect 191 0 194 0;
#X connect 192 0 194 0;
#X connect 193 0 190 0;
#X connect 195 0 198 0;
#X connect 196 0 195 0;
#X connect 199 0 197 0;
#X connect 200 0 203 0;
#X connect 201 0 200 0;
#X connect 204 0 202 0;
#X connect 205 0 206 0;
#X connect 205 1 207 0;
#X connect 205 2 222 0;
#X connect 206 0 209 0;
#X connect 207 0 209 0;
#X connect 208 0 205 0;
#X connect 210 0 211 0;
#X connect 211 0 212 0;
#X connect 213 0 215 0;
#X connect 214 0 213 0;
#X connect 216 0 217 0;
#X connect 216 0 218 0;
#X connect 219 0 220 0;
#X connect 221 0 194 0;
#X connect 222 0 209 0;
#X connect 223 0 125 0;
#X connect 224 0 229 0;
#X connect 225 0 226 0;
#X connect 227 0 226 0;
#X connect 228 0 226 0;
#X connect 229 0 225 0;
#X connect 229 1 230 0;
#X connect 230 0 227 0;
#X connect 230 1 228 0;
#X connect 231 0 237 0;
#X connect 232 0 237 0;
#X connect 233 0 237 0;
#X connect 234 0 231 0;
#X connect 234 1 235 0;
#X connect 235 0 232 0;
#X connect 235 1 233 0;
#X connect 236 0 234 0;
#X connect 238 0 142 0;
#X restore 73 44 pd ctl;
#X obj 200 440 vsl 15 128 0 127 0 0 lforateout lforatein LFO_RATE 0
-9 0 10 -262144 -1 -1 5600 1;
#X obj 268 440 vsl 15 128 0 127 0 0 vcolfoamtout vcolfoamtin VCO_LFO_AMT
0 -9 0 10 -262144 -1 -1 100 1;
#X obj 348 441 vsl 15 128 0 127 0 0 vcflfoamtout vcflfoamtin VCF_LFO_AMT
0 -9 0 10 -262144 -1 -1 8100 1;
#X obj 458 442 vsl 15 128 0 127 0 0 ampattackout ampattackin ATATCK
0 -9 0 10 -262144 -1 -1 2300 1;
#X obj 504 444 vsl 15 128 0 127 0 0 ampdecayout ampdecayin DECAY 0
-9 0 10 -262144 -1 -1 1600 1;
#X obj 598 444 vsl 15 128 0 127 0 0 ampreleaseout ampreleasein RELEASE
0 -9 0 10 -262144 -1 -1 1600 1;
#X obj 545 443 vsl 15 128 0 127 0 0 ampsustainout ampsustainin SUSTAIN
0 -9 0 10 -262144 -1 -1 12100 1;
#X obj 205 362 hsl 128 15 0 127 0 0 extinlevelout extinlevelin EXT_IN_LVL
-2 -8 0 10 -262144 -1 -1 5400 1;
#X obj 306 396 tgl 15 0 lfokeytrigout lfokeytrigin LFO_KEY_TRIGGER
17 7 0 10 -262144 -1 -1 0 1;
#X obj 708 444 tgl 25 0 glideout glidein GLIDE 1 -11 0 10 -260097 -1
-1 65 1;
#X obj 71 101 bng 30 250 50 0 fwversion empty SHOW_FW_VERSION 1 -12
0 10 -262144 -1 -1;
#X obj 206 64 bng 50 250 50 0 getallcc empty GET_CURRENT_PATCH 0 -15
0 30 -260097 -1 -1;
#X obj 198 397 tgl 15 0 lfomidisyncout lfomidisyncin LFO_MIDI_SYNC
17 7 0 10 -262144 -1 -1 0 1;
#X obj 206 293 hsl 128 15 0 127 0 0 vco1lvlout vco1lvlin VCO1_LVL -2
-8 0 10 -262144 -1 -1 8100 1;
#X obj 662 196 hsl 128 30 0 127 0 0 egamtout egamtin EG_AMOUNT -2 -8
0 10 -262144 -1 -1 7600 1;
#X obj 207 200 hsl 128 15 0 127 0 0 vco2freqout vco2freqin VCO2_FREQ
-2 -8 0 10 -262144 -1 -1 0 1;
#X obj 207 200 hsl 128 15 0 127 0 0 vco2freqout vco2freqin VCO2_FREQ
-2 -8 0 10 -262144 -1 -1 0 1;
#X obj 207 234 hsl 128 15 0 127 0 0 vco2beatfreqout vco2beatfreqin
VCO2_BEAT_FREQ -2 -8 0 10 -262144 -1 -1 7400 1;
#X obj 70 292 tgl 30 0 osc1out osc1in OSC1_SAW/SQUARE 1 -11 0 10 -260097
-1 -1 0 1;
#X obj 80 211 tgl 15 0 notesyncout notesyncin NOTE_SYNC 17 7 0 10 -262144
-1 -1 0 1;
#X obj 717 491 hsl 128 15 0 127 0 0 gliderateout glideratein GLIDE_RATE
-2 -8 0 10 -262144 -1 -1 5500 1;
#X obj 709 410 hradio 15 1 0 3 keyprioout keyprioin KEYB_PRIO 0 -8
0 10 -262144 -1 -1 0;
#X obj 749 446 tgl 15 0 legatoglideout legatoglidein LEGATO_GLIDE 17
7 0 10 -262144 -1 -1 2 1;
#X obj 204 329 hsl 128 15 0 127 0 0 vco2lvlout vco2lvlin VCO2_LVL -2
-8 0 10 -262144 -1 -1 11300 1;
#X obj 207 200 hsl 128 15 0 127 0 0 vco2freqout vco2freqin VCO2_FREQ
-2 -8 0 10 -262144 -1 -1 0 1;
#X obj 207 200 hsl 128 15 0 127 0 0 vco2freqout vco2freqin VCO2_FREQ
-2 -8 0 10 -262144 -1 -1 0 1;
#X obj 207 200 hsl 128 15 0 127 0 0 vco2freqout vco2freqin VCO2_FREQ
-2 -8 0 10 -262144 -1 -1 0 1;
#X obj 370 195 hsl 128 30 0 127 0 0 cutoffout cutoffin CUTOFF -2 -8
0 10 -262144 -1 -1 3500 1;
#X obj 515 195 hsl 128 30 0 127 0 0 resout resin RES -2 -8 0 10 -262144
-1 -1 1600 1;
#X obj 459 271 vsl 15 128 0 127 0 0 vcfattackout vcfattackin ATATCK
0 -9 0 10 -262144 -1 -1 6200 1;
#X obj 505 273 vsl 15 128 0 127 0 0 vcfdecayout vcfdecayin DECAY 0
-9 0 10 -262144 -1 -1 1300 1;
#X obj 599 273 vsl 15 128 0 127 0 0 vcfreleaseout vcfreleasein RELEASE
0 -9 0 10 -262144 -1 -1 1300 1;
#X obj 546 272 vsl 15 128 0 127 0 0 vcfsustainout vcfsustainin SUSTAIN
0 -9 0 10 -262144 -1 -1 11600 1;
#X obj 690 271 tgl 30 0 releaseout releasein RELEASE 17 7 0 10 -260097
-1 -1 65 1;
#X obj 71 345 tgl 30 0 osc2out osc2in OSC2_SAW/SQUARE 1 -11 0 10 -260097
-1 -1 65 1;
#X obj 712 557 hradio 15 1 0 3 glidetypeout glidetypein GLIDE_TYPE
0 -8 0 10 -262144 -1 -1 2;
#X obj 719 147 hsl 128 15 0 127 0 0 volvelout volvelin VOLUME_VELOCITY
-2 -8 0 10 -262144 -1 -1 6500 1;
#X obj 859 148 vsl 30 128 0 127 0 0 volout volin VOLUME 0 -9 0 10 -262144
-1 -1 8400 1;
#X obj 707 353 hradio 15 1 0 3 trigmodeout trigmodein TRIGGER_MODE
0 -8 0 10 -262144 -1 -1 0;
#X obj 555 93 bng 30 250 50 0 soundoffout soundoffin ALL_SOUNDS_OFF
1 -11 0 10 -260097 -1 -1;
#X obj 448 91 bng 30 250 50 0 noteoffout noteoffin ALL_NOTE_OFF 1 -11
0 10 -260097 -1 -1;
#X floatatom 365 102 5 0 127 0 PATCH_NUMEBR patchin patchout, f 5
;
#X text 9 194 START OSC1+OSC2 SAME TIME;
#X text 703 321 LEGATO ON/LEGATO OFF/EG RESET;
#X text 703 381 LOW/HIGH/LAST;
#X text 656 526 LINEAR CONSTANT RATE/LINEAR CONSTANT TIME/EXPONENTIAL
;
#X coords 0 0 1 1 85 60 0;
